{
    "asset" : {
        "generator" : "Khronos glTF Blender I/O v1.7.33",
        "version" : "2.0"
    },
    "scene" : 0,
    "scenes" : [
        {
            "name" : "Scene",
            "nodes" : [
                0,
                1,
                2,
                3,
                4,
                5,
                6
            ]
        }
    ],
    "nodes" : [
        {
            "mesh" : 0,
            "name" : "Cube",
            "translation" : [
                -0.16516050696372986,
                1.0051600933074951,
                0.19854137301445007
            ]
        },
        {
            "mesh" : 1,
            "name" : "Cylinder",
            "rotation" : [
                0,
                0,
                -0.7071067094802856,
                -0.7071068286895752
            ],
            "scale" : [
                0.10502675920724869,
                0.04168534278869629,
                0.10502675920724869
            ],
            "translation" : [
                0.8417901396751404,
                0.5253447890281677,
                -0.9984883666038513
            ]
        },
        {
            "mesh" : 2,
            "name" : "Cylinder.001",
            "rotation" : [
                0,
                0,
                -0.7071067094802856,
                -0.7071068286895752
            ],
            "scale" : [
                0.10502675920724869,
                0.04168534278869629,
                0.10502675920724869
            ],
            "translation" : [
                0.8417901396751404,
                0.8895535469055176,
                -0.9984883666038513
            ]
        },
        {
            "mesh" : 3,
            "name" : "Cylinder.002",
            "rotation" : [
                0,
                0,
                -0.7071067094802856,
                -0.7071068286895752
            ],
            "scale" : [
                0.10502675920724869,
                0.04168534278869629,
                0.10502675920724869
            ],
            "translation" : [
                0.8417901396751404,
                1.2369894981384277,
                -0.9984883666038513
            ]
        },
        {
            "mesh" : 4,
            "name" : "Cube.001",
            "rotation" : [
                0.1535143107175827,
                0,
                0,
                0.9881464242935181
            ],
            "scale" : [
                -0.029835624620318413,
                -0.38550037145614624,
                -0.024079235270619392
            ],
            "translation" : [
                0.09101903438568115,
                2.3395392894744873,
                1.2516274452209473
            ]
        },
        {
            "mesh" : 5,
            "name" : "Cube.002",
            "scale" : [
                0.46202799677848816,
                0.0385628268122673,
                0.4809691905975342
            ],
            "translation" : [
                0.04864130914211273,
                1.9935970306396484,
                0.8820474743843079
            ]
        },
        {
            "mesh" : 6,
            "name" : "Cube.003",
            "rotation" : [
                0.0005579691496677697,
                -0.9881399273872375,
                0.15351328253746033,
                0.00359155610203743
            ],
            "scale" : [
                -0.029835624620318413,
                -0.38550037145614624,
                -0.024079235270619392
            ],
            "translation" : [
                0.10929706692695618,
                2.299839496612549,
                0.6687220931053162
            ]
        }
    ],
    "materials" : [
        {
            "doubleSided" : true,
            "name" : "Material.001",
            "pbrMetallicRoughness" : {
                "baseColorFactor" : [
                    0.026596534997224808,
                    0.01331882830709219,
                    0.003368974896147847,
                    1
                ],
                "metallicFactor" : 0,
                "roughnessFactor" : 0.4000000059604645
            }
        },
        {
            "doubleSided" : true,
            "name" : "Material.005",
            "pbrMetallicRoughness" : {
                "baseColorFactor" : [
                    0.8000000715255737,
                    0.5674337148666382,
                    0.49997028708457947,
                    1
                ],
                "metallicFactor" : 0.9083333611488342,
                "roughnessFactor" : 0.9500000476837158
            }
        },
        {
            "doubleSided" : true,
            "name" : "Material.003",
            "pbrMetallicRoughness" : {
                "baseColorFactor" : [
                    0.4261428713798523,
                    0.4261428713798523,
                    0.4261428713798523,
                    1
                ],
                "metallicFactor" : 0.5,
                "roughnessFactor" : 0.4000000059604645
            }
        },
        {
            "doubleSided" : true,
            "name" : "Material.002",
            "pbrMetallicRoughness" : {
                "baseColorFactor" : [
                    0.1423986405134201,
                    0.1347067952156067,
                    0.14227309823036194,
                    1
                ],
                "metallicFactor" : 0.5,
                "roughnessFactor" : 0.4000000059604645
            }
        }
    ],
    "meshes" : [
        {
            "name" : "Cube.001",
            "primitives" : [
                {
                    "attributes" : {
                        "POSITION" : 0,
                        "NORMAL" : 1,
                        "TEXCOORD_0" : 2
                    },
                    "indices" : 3,
                    "material" : 0
                }
            ]
        },
        {
            "name" : "Cylinder",
            "primitives" : [
                {
                    "attributes" : {
                        "POSITION" : 4,
                        "NORMAL" : 5,
                        "TEXCOORD_0" : 6
                    },
                    "indices" : 7,
                    "material" : 1
                }
            ]
        },
        {
            "name" : "Cylinder.001",
            "primitives" : [
                {
                    "attributes" : {
                        "POSITION" : 8,
                        "NORMAL" : 9,
                        "TEXCOORD_0" : 10
                    },
                    "indices" : 7,
                    "material" : 1
                }
            ]
        },
        {
            "name" : "Cylinder.002",
            "primitives" : [
                {
                    "attributes" : {
                        "POSITION" : 11,
                        "NORMAL" : 12,
                        "TEXCOORD_0" : 13
                    },
                    "indices" : 7,
                    "material" : 1
                }
            ]
        },
        {
            "name" : "Cube.002",
            "primitives" : [
                {
                    "attributes" : {
                        "POSITION" : 14,
                        "NORMAL" : 15,
                        "TEXCOORD_0" : 16
                    },
                    "indices" : 17,
                    "material" : 2
                }
            ]
        },
        {
            "name" : "Cube.003",
            "primitives" : [
                {
                    "attributes" : {
                        "POSITION" : 18,
                        "NORMAL" : 19,
                        "TEXCOORD_0" : 20
                    },
                    "indices" : 21,
                    "material" : 3
                }
            ]
        },
        {
            "name" : "Cube.004",
            "primitives" : [
                {
                    "attributes" : {
                        "POSITION" : 22,
                        "NORMAL" : 23,
                        "TEXCOORD_0" : 24
                    },
                    "indices" : 17,
                    "material" : 2
                }
            ]
        }
    ],
    "accessors" : [
        {
            "bufferView" : 0,
            "componentType" : 5126,
            "count" : 56,
            "max" : [
                0.9948972463607788,
                0.9883916974067688,
                1.4607806205749512
            ],
            "min" : [
                -0.9883916974067688,
                -0.9883916974067688,
                -1.4607806205749512
            ],
            "type" : "VEC3"
        },
        {
            "bufferView" : 1,
            "componentType" : 5126,
            "count" : 56,
            "type" : "VEC3"
        },
        {
            "bufferView" : 2,
            "componentType" : 5126,
            "count" : 56,
            "type" : "VEC2"
        },
        {
            "bufferView" : 3,
            "componentType" : 5123,
            "count" : 84,
            "type" : "SCALAR"
        },
        {
            "bufferView" : 4,
            "componentType" : 5126,
            "count" : 192,
            "max" : [
                1,
                1,
                1
            ],
            "min" : [
                -1,
                -1,
                -1
            ],
            "type" : "VEC3"
        },
        {
            "bufferView" : 5,
            "componentType" : 5126,
            "count" : 192,
            "type" : "VEC3"
        },
        {
            "bufferView" : 6,
            "componentType" : 5126,
            "count" : 192,
            "type" : "VEC2"
        },
        {
            "bufferView" : 7,
            "componentType" : 5123,
            "count" : 372,
            "type" : "SCALAR"
        },
        {
            "bufferView" : 8,
            "componentType" : 5126,
            "count" : 192,
            "max" : [
                1,
                1,
                1
            ],
            "min" : [
                -1,
                -1,
                -1
            ],
            "type" : "VEC3"
        },
        {
            "bufferView" : 9,
            "componentType" : 5126,
            "count" : 192,
            "type" : "VEC3"
        },
        {
            "bufferView" : 10,
            "componentType" : 5126,
            "count" : 192,
            "type" : "VEC2"
        },
        {
            "bufferView" : 11,
            "componentType" : 5126,
            "count" : 192,
            "max" : [
                1,
                1,
                1
            ],
            "min" : [
                -1,
                -1,
                -1
            ],
            "type" : "VEC3"
        },
        {
            "bufferView" : 12,
            "componentType" : 5126,
            "count" : 192,
            "type" : "VEC3"
        },
        {
            "bufferView" : 13,
            "componentType" : 5126,
            "count" : 192,
            "type" : "VEC2"
        },
        {
            "bufferView" : 14,
            "componentType" : 5126,
            "count" : 56,
            "max" : [
                1.355173110961914,
                1,
                1.3551733493804932
            ],
            "min" : [
                -1.3551733493804932,
                -1.273382544517517,
                -1.3551734685897827
            ],
            "type" : "VEC3"
        },
        {
            "bufferView" : 15,
            "componentType" : 5126,
            "count" : 56,
            "type" : "VEC3"
        },
        {
            "bufferView" : 16,
            "componentType" : 5126,
            "count" : 56,
            "type" : "VEC2"
        },
        {
            "bufferView" : 17,
            "componentType" : 5123,
            "count" : 84,
            "type" : "SCALAR"
        },
        {
            "bufferView" : 18,
            "componentType" : 5126,
            "count" : 24,
            "max" : [
                1,
                1,
                1
            ],
            "min" : [
                -1,
                -1,
                -1
            ],
            "type" : "VEC3"
        },
        {
            "bufferView" : 19,
            "componentType" : 5126,
            "count" : 24,
            "type" : "VEC3"
        },
        {
            "bufferView" : 20,
            "componentType" : 5126,
            "count" : 24,
            "type" : "VEC2"
        },
        {
            "bufferView" : 21,
            "componentType" : 5123,
            "count" : 36,
            "type" : "SCALAR"
        },
        {
            "bufferView" : 22,
            "componentType" : 5126,
            "count" : 56,
            "max" : [
                1.355173110961914,
                1,
                1.3551733493804932
            ],
            "min" : [
                -1.3551733493804932,
                -1.273382544517517,
                -1.3551734685897827
            ],
            "type" : "VEC3"
        },
        {
            "bufferView" : 23,
            "componentType" : 5126,
            "count" : 56,
            "type" : "VEC3"
        },
        {
            "bufferView" : 24,
            "componentType" : 5126,
            "count" : 56,
            "type" : "VEC2"
        }
    ],
    "bufferViews" : [
        {
            "buffer" : 0,
            "byteLength" : 672,
            "byteOffset" : 0
        },
        {
            "buffer" : 0,
            "byteLength" : 672,
            "byteOffset" : 672
        },
        {
            "buffer" : 0,
            "byteLength" : 448,
            "byteOffset" : 1344
        },
        {
            "buffer" : 0,
            "byteLength" : 168,
            "byteOffset" : 1792
        },
        {
            "buffer" : 0,
            "byteLength" : 2304,
            "byteOffset" : 1960
        },
        {
            "buffer" : 0,
            "byteLength" : 2304,
            "byteOffset" : 4264
        },
        {
            "buffer" : 0,
            "byteLength" : 1536,
            "byteOffset" : 6568
        },
        {
            "buffer" : 0,
            "byteLength" : 744,
            "byteOffset" : 8104
        },
        {
            "buffer" : 0,
            "byteLength" : 2304,
            "byteOffset" : 8848
        },
        {
            "buffer" : 0,
            "byteLength" : 2304,
            "byteOffset" : 11152
        },
        {
            "buffer" : 0,
            "byteLength" : 1536,
            "byteOffset" : 13456
        },
        {
            "buffer" : 0,
            "byteLength" : 2304,
            "byteOffset" : 14992
        },
        {
            "buffer" : 0,
            "byteLength" : 2304,
            "byteOffset" : 17296
        },
        {
            "buffer" : 0,
            "byteLength" : 1536,
            "byteOffset" : 19600
        },
        {
            "buffer" : 0,
            "byteLength" : 672,
            "byteOffset" : 21136
        },
        {
            "buffer" : 0,
            "byteLength" : 672,
            "byteOffset" : 21808
        },
        {
            "buffer" : 0,
            "byteLength" : 448,
            "byteOffset" : 22480
        },
        {
            "buffer" : 0,
            "byteLength" : 168,
            "byteOffset" : 22928
        },
        {
            "buffer" : 0,
            "byteLength" : 288,
            "byteOffset" : 23096
        },
        {
            "buffer" : 0,
            "byteLength" : 288,
            "byteOffset" : 23384
        },
        {
            "buffer" : 0,
            "byteLength" : 192,
            "byteOffset" : 23672
        },
        {
            "buffer" : 0,
            "byteLength" : 72,
            "byteOffset" : 23864
        },
        {
            "buffer" : 0,
            "byteLength" : 672,
            "byteOffset" : 23936
        },
        {
            "buffer" : 0,
            "byteLength" : 672,
            "byteOffset" : 24608
        },
        {
            "buffer" : 0,
            "byteLength" : 448,
            "byteOffset" : 25280
        }
    ],
    "buffers" : [
        {
            "byteLength" : 25728,
            "uri" : "data:application/octet-stream;base64,"
        }
    ]
}
